<?xml version="1.0" encoding="UTF-8"?><svg xmlns="http://www.w3.org/2000/svg" width="100%" height="100%"><line x1="100" y1="250" x2="100" y2="600" stroke="blue" stroke-width="2"/><line x1="100" y1="600" x2="1000" y2="600" stroke="blue" stroke-width="2"/><text stroke="green" x="115" y="620">Casa</text><rect width="20" height="220" stroke="blue" fill="cyan" x="115" y="380"><animate attributeName="height" dur="3s" values="0;220;0" repeatCount="indefinite"/></rect><text stroke="magenta" x="115" y="370">22</text><text stroke="green" x="230" y="620">Rabat</text><rect width="20" height="200" stroke="blue" fill="cyan" x="230" y="400"><animate attributeName="height" dur="3s" values="0;200;0" repeatCount="indefinite"/></rect><text stroke="magenta" x="230" y="390">20</text><text stroke="green" x="345" y="620">Fes</text><rect width="20" height="180" stroke="blue" fill="cyan" x="345" y="420"><animate attributeName="height" dur="3s" values="0;180;0" repeatCount="indefinite"/></rect><text stroke="magenta" x="345" y="410">18</text><text stroke="green" x="460" y="620">Oujda</text><rect width="20" height="190" stroke="blue" fill="cyan" x="460" y="410"><animate attributeName="height" dur="3s" values="0;190;0" repeatCount="indefinite"/></rect><text stroke="magenta" x="460" y="400">19</text><text stroke="green" x="575" y="620">Tanger</text><rect width="20" height="250" stroke="blue" fill="cyan" x="575" y="350"><animate attributeName="height" dur="3s" values="0;250;0" repeatCount="indefinite"/></rect><text stroke="magenta" x="575" y="340">25</text><text stroke="green" x="690" y="620">Marrakech</text><rect width="20" height="280" stroke="blue" fill="cyan" x="690" y="320"><animate attributeName="height" dur="3s" values="0;280;0" repeatCount="indefinite"/></rect><text stroke="magenta" x="690" y="310">28</text><text stroke="green" x="805" y="620">Ouarzazat</text><rect width="20" height="290" stroke="blue" fill="cyan" x="805" y="310"><animate attributeName="height" dur="3s" values="0;290;0" repeatCount="indefinite"/></rect><text stroke="magenta" x="805" y="300">29</text><text stroke="green" x="920" y="620">Agadir</text><rect width="20" height="200" stroke="blue" fill="cyan" x="920" y="400"><animate attributeName="height" dur="3s" values="0;200;0" repeatCount="indefinite"/></rect><text stroke="magenta" x="920" y="390">20</text></svg>